<svg data-v-fde0c5aa=""
    xmlns="http://www.w3.org/2000/svg" width="54px" height="54px" viewBox="0 0 54 54" class="iconLeft">
    <defs data-v-fde0c5aa=""></defs>
    <rect data-v-fde0c5aa="" fill="transparent" x="0" y="0" width="54px" height="54px" class="logo-background-square"></rect>
    <defs data-v-fde0c5aa=""></defs>
    <g data-v-fde0c5aa="" id="ad2187b4-1db2-4ebc-a651-0fb4df355af7" fill="#000000" transform="matrix(2.485235721267219,0,0,2.485235721267219,112.8988969234606,128.0056635112693)">
        <path d="M4.54 13.92L4.54 13.92L4.54 13.92Q3.35 13.92 2.53 13.17L2.53 13.17L2.53 13.17Q1.71 12.42 1.36 11.31L1.36 11.31L1.36 11.31Q1.01 10.19 1.01 8.85L1.01 8.85L1.01 8.85Q1.01 6.73 1.92 5.26L1.92 5.26L1.92 5.26Q2.83 3.78 4.54 3.78L4.54 3.78L4.54 3.78Q5.60 3.78 6.22 4.24L6.22 4.24L6.22 4.24Q6.83 4.70 7.25 5.49L7.25 5.49L6.19 6.10L6.19 6.10Q5.88 5.54 5.50 5.22L5.50 5.22L5.50 5.22Q5.12 4.90 4.54 4.90L4.54 4.90L4.54 4.90Q3.74 4.90 3.21 5.53L3.21 5.53L3.21 5.53Q2.67 6.16 2.47 7.01L2.47 7.01L2.47 7.01Q2.27 7.85 2.27 8.85L2.27 8.85L2.27 8.85Q2.27 10.51 2.84 11.66L2.84 11.66L2.84 11.66Q3.42 12.80 4.54 12.80L4.54 12.80L4.54 12.80Q5.36 12.80 5.84 12.19L5.84 12.19L5.84 12.19Q6.31 11.58 6.31 10.57L6.31 10.57L6.31 10.11L4.55 10.11L4.55 9.00L7.57 9.00L7.57 10.18L7.57 10.18Q7.57 11.94 6.72 12.93L6.72 12.93L6.72 12.93Q5.87 13.92 4.54 13.92ZM12.46 13.92L12.46 13.92L12.46 13.92Q11.30 13.92 10.60 13.29L10.60 13.29L10.60 13.29Q9.90 12.67 9.90 11.51L9.90 11.51L9.90 11.51Q9.90 10.35 10.69 9.74L10.69 9.74L10.69 9.74Q11.48 9.14 12.64 9.14L12.64 9.14L12.64 9.14Q13.71 9.14 14.57 9.60L14.57 9.60L14.57 9.06L14.57 9.06Q14.57 7.46 13.06 7.46L13.06 7.46L13.06 7.46Q11.96 7.46 10.79 8.22L10.79 8.22L10.44 7.22L10.44 7.22Q11.73 6.43 13.17 6.43L13.17 6.43L13.17 6.43Q13.64 6.43 14.04 6.53L14.04 6.53L14.04 6.53Q14.45 6.64 14.85 6.90L14.85 6.90L14.85 6.90Q15.25 7.15 15.48 7.69L15.48 7.69L15.48 7.69Q15.71 8.22 15.71 8.97L15.71 8.97L15.71 13.75L14.57 13.75L14.57 13.09L14.57 13.09Q13.68 13.92 12.46 13.92ZM12.61 12.88L12.61 12.88L12.61 12.88Q13.73 12.88 14.57 11.90L14.57 11.90L14.57 10.67L14.57 10.67Q13.75 10.16 12.78 10.16L12.78 10.16L12.78 10.16Q12.03 10.16 11.52 10.51L11.52 10.51L11.52 10.51Q11.02 10.85 11.02 11.51L11.02 11.51L11.02 11.51Q11.02 12.12 11.44 12.50L11.44 12.50L11.44 12.50Q11.86 12.88 12.61 12.88ZM23.42 6.43L23.42 6.43L23.42 6.43Q24.32 6.43 24.75 7.01L24.75 7.01L24.75 7.01Q25.17 7.60 25.17 8.90L25.17 8.90L25.17 13.75L24.01 13.75L24.01 9.37L24.01 9.37Q24.01 8.39 23.84 7.97L23.84 7.97L23.84 7.97Q23.67 7.55 23.17 7.55L23.17 7.55L23.17 7.55Q22.65 7.55 22.40 8.06L22.40 8.06L22.40 8.06Q22.15 8.58 22.15 9.44L22.15 9.44L22.15 13.75L20.99 13.75L20.99 9.24L20.99 9.24Q20.99 8.43 20.83 7.99L20.83 7.99L20.83 7.99Q20.66 7.55 20.19 7.55L20.19 7.55L20.19 7.55Q19.67 7.55 19.39 8.07L19.39 8.07L19.39 8.07Q19.11 8.60 19.11 9.44L19.11 9.44L19.11 13.75L17.95 13.75L17.95 6.59L19.04 6.59L19.04 7.52L19.04 7.52Q19.46 6.43 20.43 6.43L20.43 6.43L20.43 6.43Q20.96 6.43 21.32 6.75L21.32 6.75L21.32 6.75Q21.69 7.07 21.83 7.52L21.83 7.52L21.83 7.52Q22.43 6.43 23.42 6.43ZM33.32 9.86L33.32 9.86L33.32 9.86Q33.32 10.32 33.28 10.64L33.28 10.64L28.28 10.64L28.28 10.64Q28.42 11.68 28.96 12.26L28.96 12.26L28.96 12.26Q29.50 12.84 30.37 12.84L30.37 12.84L30.37 12.84Q31.28 12.84 32.03 12.22L32.03 12.22L32.70 13.01L32.70 13.01Q31.70 13.92 30.32 13.92L30.32 13.92L30.32 13.92Q28.83 13.92 27.94 12.85L27.94 12.85L27.94 12.85Q27.05 11.79 27.05 10.16L27.05 10.16L27.05 10.16Q27.05 8.41 27.94 7.42L27.94 7.42L27.94 7.42Q28.83 6.43 30.32 6.43L30.32 6.43L30.32 6.43Q31.64 6.43 32.48 7.29L32.48 7.29L32.48 7.29Q33.32 8.16 33.32 9.86ZM28.25 9.60L28.25 9.60L32.13 9.60L32.13 9.60Q32.10 8.47 31.57 7.98L31.57 7.98L31.57 7.98Q31.04 7.49 30.32 7.49L30.32 7.49L30.32 7.49Q29.37 7.49 28.85 8.05L28.85 8.05L28.85 8.05Q28.32 8.61 28.25 9.60ZM40.57 6.43L40.57 6.43L40.57 6.43Q41.57 6.43 42.14 6.76L42.14 6.76L42.14 9.24L40.95 9.24L40.95 7.62L40.95 7.62Q40.81 7.60 40.52 7.60L40.52 7.60L40.52 7.60Q39.42 7.60 38.68 8.13L38.68 8.13L38.68 8.13Q37.93 8.67 37.93 9.63L37.93 9.63L37.93 12.68L40.01 12.68L40.01 13.75L35.21 13.75L35.21 12.68L36.71 12.68L36.71 7.66L35.21 7.66L35.21 6.59L37.84 6.59L37.84 7.84L37.84 7.84Q38.21 7.20 38.98 6.81L38.98 6.81L38.98 6.81Q39.76 6.43 40.57 6.43ZM47.40 13.92L47.40 13.92L47.40 13.92Q46.62 13.92 45.91 13.57L45.91 13.57L45.91 13.57Q45.21 13.23 44.73 12.66L44.73 12.66L45.54 11.94L45.54 11.94Q46.40 12.88 47.49 12.88L47.49 12.88L47.49 12.88Q48.09 12.88 48.48 12.64L48.48 12.64L48.48 12.64Q48.87 12.39 48.87 11.94L48.87 11.94L48.87 11.94Q48.87 11.68 48.74 11.47L48.74 11.47L48.74 11.47Q48.61 11.26 48.29 11.07L48.29 11.07L48.29 11.07Q47.98 10.89 47.75 10.79L47.75 10.79L47.75 10.79Q47.53 10.68 47.05 10.50L47.05 10.50L47.05 10.50Q46.49 10.28 46.17 10.11L46.17 10.11L46.17 10.11Q45.84 9.94 45.48 9.67L45.48 9.67L45.48 9.67Q45.12 9.41 44.96 9.07L44.96 9.07L44.96 9.07Q44.80 8.74 44.80 8.29L44.80 8.29L44.80 8.29Q44.80 7.45 45.51 6.94L45.51 6.94L45.51 6.94Q46.21 6.43 47.31 6.43L47.31 6.43L47.31 6.43Q48.85 6.43 49.81 7.53L49.81 7.53L49.01 8.19L49.01 8.19Q48.23 7.46 47.28 7.46L47.28 7.46L47.28 7.46Q46.65 7.46 46.28 7.69L46.28 7.69L46.28 7.69Q45.91 7.91 45.91 8.29L45.91 8.29L45.91 8.29Q45.91 8.69 46.29 8.95L46.29 8.95L46.29 8.95Q46.68 9.20 47.47 9.51L47.47 9.51L47.47 9.51Q47.54 9.53 47.59 9.55L47.59 9.55L47.59 9.55Q48.08 9.74 48.29 9.84L48.29 9.84L48.29 9.84Q48.51 9.93 48.91 10.15L48.91 10.15L48.91 10.15Q49.31 10.37 49.49 10.58L49.49 10.58L49.49 10.58Q49.67 10.79 49.83 11.14L49.83 11.14L49.83 11.14Q49.98 11.48 49.98 11.90L49.98 11.90L49.98 11.90Q49.98 12.84 49.29 13.38L49.29 13.38L49.29 13.38Q48.59 13.92 47.40 13.92ZM59.19 9.86L59.19 9.86L59.19 9.86Q59.19 10.32 59.15 10.64L59.15 10.64L54.15 10.64L54.15 10.64Q54.29 11.68 54.83 12.26L54.83 12.26L54.83 12.26Q55.37 12.84 56.24 12.84L56.24 12.84L56.24 12.84Q57.15 12.84 57.90 12.22L57.90 12.22L58.58 13.01L58.58 13.01Q57.57 13.92 56.20 13.92L56.20 13.92L56.20 13.92Q54.70 13.92 53.81 12.85L53.81 12.85L53.81 12.85Q52.92 11.79 52.92 10.16L52.92 10.16L52.92 10.16Q52.92 8.41 53.81 7.42L53.81 7.42L53.81 7.42Q54.70 6.43 56.20 6.43L56.20 6.43L56.20 6.43Q57.51 6.43 58.35 7.29L58.35 7.29L58.35 7.29Q59.19 8.16 59.19 9.86ZM54.12 9.60L54.12 9.60L58.00 9.60L58.00 9.60Q57.97 8.47 57.44 7.98L57.44 7.98L57.44 7.98Q56.91 7.49 56.20 7.49L56.20 7.49L56.20 7.49Q55.24 7.49 54.72 8.05L54.72 8.05L54.72 8.05Q54.19 8.61 54.12 9.60Z"></path>
    </g>
    <defs data-v-fde0c5aa="">
        <linearGradient data-v-fde0c5aa="" gradientTransform="rotate(25)" id="e09f4b1d-ee81-4dae-ad2d-cdc97813f6b1" x1="0%" y1="0%" x2="100%" y2="0%">
            <stop data-v-fde0c5aa="" offset="0%" stop-color="#783192" stop-opacity="1"></stop>
            <stop data-v-fde0c5aa="" offset="100%" stop-color="#59BCC8" stop-opacity="1"></stop>
        </linearGradient>
    </defs>
    <g data-v-fde0c5aa="" id="aa91d3eb-d11b-45ea-95ec-40bbe87819fc" stroke="none" fill="url(#e09f4b1d-ee81-4dae-ad2d-cdc97813f6b1)" transform="matrix(0.7040366150166272,0,0,0.7040366150166272,36.00282590087873,114.79781339570074)">
        <path d="M5.833 37.065S1.672 70.26 36.4 70.26c0 0 8.655-33.195-30.567-33.195zM94.074 23.155c-47.241 0-51.611 29.712-50.744 44.967 7.981-23.02 29.738-28.101 29.738-28.101-20.77 12.557-25.03 35.225-25.307 36.825 52.753-2.036 46.313-53.691 46.313-53.691z"></path>
    </g>
</svg>